<svg xmlns="http://www.w3.org/2000/svg" width="512" height="512" viewBox="0 0 612 612"><path d="M587.572 186.881c-32.266-75.225-87.096-129.934-162.949-162.285C386.711 8.427 347.328.168 305.832.168c-41.488 0-80.914 8.181-118.784 24.428-75.224 32.265-130.633 86.939-162.956 162.285C7.895 224.629 0 264.176 0 305.664c0 41.496 7.895 81.371 24.092 119.127 32.323 75.346 87.731 130.348 162.956 162.621 37.87 16.247 77.295 24.42 118.784 24.42 41.496 0 80.879-8.259 118.791-24.42 75.854-32.352 130.684-87.403 162.949-162.621C603.819 386.914 612 347.16 612 305.664c0-41.488-8.181-80.907-24.428-118.783zM204.109 57.054c-26.434 33.458-45.836 75.953-58.221 127.485H65.917c29.445-57.221 78.972-103.064 138.192-127.485zM37.141 305.664c0-29.11 4.683-57.214 13.72-84.319h87.667c-4.348 28.439-6.36 56.551-6.36 84.319 0 27.44 2.013 55.217 6.36 83.656H50.19c-8.701-27.105-13.049-55.209-13.049-83.656zm28.776 120.462h79.972c12.385 52.531 31.788 95.697 58.221 128.827-60.228-25.099-109.754-70.941-138.193-128.827zm221.177 145.553c-21.751-6.354-42.16-22.415-60.562-48.513-18.403-26.105-32.458-58.557-42.16-97.04h102.722v145.553zm0-182.359H176.005c-4.354-29.782-6.696-57.558-6.696-83.656 0-28.104 2.341-56.215 7.367-84.319h110.417V389.32h.001zm0-204.78H184.372c10.372-38.148 24.506-70.214 42.831-96.034 18.481-26.048 38.141-42.16 59.892-48.185V184.54zm258.99 0h-79.973c-12.378-51.533-31.787-94.028-58.221-127.485 59.228 24.42 108.748 70.263 138.194 127.485zM324.906 40.321c21.751 6.025 41.41 22.137 59.892 48.185 18.331 25.82 32.458 57.886 42.83 96.034H324.906V40.321zm0 181.024h110.417c5.025 28.104 7.367 56.215 7.367 84.319 0 26.099-2.342 53.874-6.696 83.656H324.906V221.345zm0 350.334V426.126h102.722c-10.036 38.483-24.277 70.806-42.495 97.04-18.26 26.298-38.141 42.495-60.227 48.513zm82.985-16.726c26.434-33.13 45.843-76.296 58.221-128.827h79.973c-28.44 57.886-77.968 103.728-138.194 128.827zM561.81 389.32h-88.338a550.756 550.756 0 0 0 6.36-83.656c0-27.768-2.006-55.879-6.36-84.319h87.667c9.037 27.104 13.72 55.208 13.72 84.319-.001 28.447-4.347 56.551-13.049 83.656z" fill="#FFF"/></svg>